<?xml version="1.0" standalone="no"?><!DOCTYPE svg PUBLIC "-//W3C//DTD SVG 1.1//EN" "http://www.w3.org/Graphics/SVG/1.1/DTD/svg11.dtd"><svg class="icon" width="200px" height="200.00px" viewBox="0 0 1024 1024" version="1.1" xmlns="http://www.w3.org/2000/svg"><path d="M326.542222 932.977778h45.511111l11.377778-56.888889-56.888889-11.377778v68.266667z m317.44 0h45.511111v-68.266667l-56.888889 11.377778 11.377778 56.888889z m124.017778-498.346667C740.693333 344.746667 631.466667 284.444444 508.586667 284.444444s-248.035556 67.128889-275.342223 157.013334c-18.204444 11.377778-14.791111 28.444444-14.791111 51.2 0 27.306667 23.893333 59.164444 46.648889 70.542222 32.995556 65.991111 106.951111 114.915556 196.835556 127.431111v3.413333c0 27.306667-34.133333 79.644444-34.133334 79.644445h135.395556s-34.133333-52.337778-34.133333-79.644445c100.124444-6.826667 184.32-59.164444 219.591111-129.706666 23.893333-11.377778 40.96-42.097778 40.96-68.266667 1.137778-23.893333-3.413333-50.062222-21.617778-61.44z" fill="#FFEADB" /><path d="M712.248889 830.577778s-52.337778-51.2-79.644445-79.644445c-26.168889-28.444444-60.302222-19.342222-68.266666-11.377777-7.964444 7.964444-43.235556 34.133333-68.266667 34.133333-35.271111-1.137778-36.408889-14.791111-68.266667-34.133333s-56.888889 11.377778-56.888888 11.377777l-68.266667 79.644445c-18.204444 18.204444 11.377778 34.133333 11.377778 34.133333l68.266666 34.133333v34.133334h249.173334v-34.133334s44.373333-19.342222 68.266666-34.133333c25.031111-14.791111 12.515556-34.133333 12.515556-34.133333z" fill="#5FB6FC" /><path d="M926.151111 671.288889c-10.24-7.964444-44.373333-40.96-45.511111-68.266667 0-27.306667 37.546667-70.542222 45.511111-79.644444 7.964444-9.102222 35.271111-85.333333 0-136.533334-7.964444-11.377778-36.408889-50.062222-79.644444-56.888888-22.755556-3.413333-68.266667 11.377778-68.266667 11.377777S762.311111 91.022222 497.208889 91.022222C267.377778 91.022222 221.866667 331.093333 225.28 341.333333c3.413333 10.24-75.093333-27.306667-112.64 34.133334-5.688889 7.964444-53.475556 78.506667 0 170.666666 3.413333 5.688889 15.928889 46.648889 0 56.888889s-48.924444 29.582222-22.755556 68.266667c5.688889 7.964444 30.72 29.582222 11.377778 45.511111-10.24 7.964444-4.551111 26.168889 11.377778 34.133333 0 0-12.515556-20.48 11.377778-34.133333s28.444444-20.48 34.133333-34.133333-17.066667-20.48 11.377778-34.133334 67.128889-19.342222 79.644444-22.755555c11.377778-3.413333 23.893333-23.893333 34.133334-11.377778s77.368889 54.613333 110.364444 62.577778c15.928889 4.551111-15.928889-11.377778-15.928889-11.377778s-85.333333-45.511111-94.435555-85.333333c-1.137778-3.413333-2.275556-12.515556-11.377778-22.755556-17.066667-20.48-45.511111-50.062222-47.786667-70.542222-2.275556-19.342222 0-42.097778 25.031111-43.235556 20.48-1.137778 20.48 26.168889 22.755556 22.755556 4.551111-6.826667 12.515556-21.617778 22.755555-30.72 2.275556-2.275556 14.791111-13.653333 23.893334-19.342222 3.413333-2.275556-6.826667-75.093333-1.137778-75.093334 4.551111 0 7.964444 73.955556 12.515556 72.817778 10.24-3.413333 29.582222-9.102222 48.924444-12.515555 4.551111-1.137778 2.275556-70.542222 6.826667-70.542223 4.551111 0 6.826667 68.266667 11.377777 68.266667 64.853333-4.551111 141.084444-5.688889 203.662223 0 3.413333 0 7.964444-68.266667 11.377777-68.266667 2.275556 0 2.275556 70.542222 4.551112 70.542223 39.822222 3.413333 68.266667 17.066667 84.195555 25.031111 3.413333 2.275556 10.24-39.822222 13.653333-38.684445 1.137778 1.137778-1.137778 45.511111 0 45.511111s1.137778 1.137778 2.275556 1.137778c13.653333 9.102222 23.893333 20.48 32.995556 31.857778 3.413333 3.413333 9.102222-14.791111 10.24-21.617778 2.275556-10.24 35.271111 5.688889 34.133333 45.511111-1.137778 28.444444-14.791111 56.888889-34.133333 68.266667s-20.48 11.377778-22.755556 22.755555c0 3.413333 1.137778 7.964444-1.137778 11.377778-25.031111 44.373333-128.568889 87.608889-128.568889 87.608889s35.271111 1.137778 138.808889-61.44c4.551111-2.275556 18.204444-4.551111 25.031111-4.551111 19.342222 1.137778 40.96 2.275556 56.888889 34.133333 12.515556 26.168889 6.826667 30.72 11.377778 34.133334 4.551111 3.413333 34.133333-14.791111 45.511111 11.377777s14.791111 35.271111 22.755556 34.133334 10.24-14.791111 11.377777-22.755556 11.377778-1.137778 22.755556-11.377778c6.826667-10.24-5.688889-14.791111-15.928889-22.755555z" fill="#592F2F" /><path d="M425.528889 423.253333c-23.893333-14.791111-53.475556 0-53.475556 0l-1.137777-3.413333c36.408889-20.48 58.026667 0 58.026666 0l-3.413333 3.413333zM587.093333 419.84s21.617778-20.48 58.026667 0l-1.137778 3.413333s-29.582222-14.791111-53.475555 0l-3.413334-3.413333z" fill="#4D2424" /><path d="M564.337778 591.644444H440.32c0 2.275556-1.137778 3.413333-1.137778 5.688889 0 34.133333 27.306667 62.577778 62.577778 62.577778 34.133333 0 62.577778-28.444444 62.577778-62.577778V591.644444z" fill="#F8857C" /><path d="M401.635556 450.56c-14.791111 0-27.306667 15.928889-27.306667 36.408889S386.844444 523.377778 401.635556 523.377778c14.791111 0 27.306667-15.928889 27.306666-36.408889s-12.515556-36.408889-27.306666-36.408889z m212.764444 0c-14.791111 0-27.306667 15.928889-27.306667 36.408889S599.608889 523.377778 614.4 523.377778c14.791111 0 27.306667-15.928889 27.306667-36.408889s-12.515556-36.408889-27.306667-36.408889z" fill="#4D2424" /></svg>